# xmcd
#
# Track frame offsets:
#	150
#	15308
#	31987
#	46706
#	63650
#	80087
#	92487
#	106562
#	124796
#	141744
#	157143
#	173361
#	190069
#	206463
#
# Disc length: 2907 seconds
# Revision: 0
# Processed by: cddbd v1.5.2PL0 Copyright (c) Steve Scherf et al.
# Submitted via: dBpowerAMP V12.0
#
DISCID=af0b590e
DTITLE=Mighty Sam McClain - Too Much Jesus (Not Enough Whiskey)
DYEAR=2012
DGENRE=Blues
TTITLE0=I Wish You Well
TTITLE1=Missing You
TTITLE2=Can You Feel It?
TTITLE3=Feel So Good - Feel So Right
TTITLE4=Tears
TTITLE5=Stand Up!
TTITLE6=Real Thing
TTITLE7=Use Me
TTITLE8=Rock My Soul
TTITLE9=Hey Baby
TTITLE10=So into You
TTITLE11=Wake Up Call
TTITLE12=Too Much Jesus
TTITLE13=Dance
EXTD=
EXTT0=
EXTT1=
EXTT2=
EXTT3=
EXTT4=
EXTT5=
EXTT6=
EXTT7=
EXTT8=
EXTT9=
EXTT10=
EXTT11=
EXTT12=
EXTT13=
PLAYORDER=
